<?xml version="1.0" encoding="UTF-8"?>
<svg version="1.1" xmlns="http://www.w3.org/2000/svg" width="1536" height="1024">
<path d="M0 0 C1.52584717 -0.0076664 1.52584717 -0.0076664 3.08251953 -0.01548767 C6.4330032 -0.02934517 9.7832802 -0.02842941 13.13378906 -0.02612305 C15.47397945 -0.03001278 17.81416913 -0.03434802 20.15435791 -0.03910828 C25.0567046 -0.04656276 29.95897927 -0.04628528 34.86132812 -0.04101562 C41.1232015 -0.03522962 47.38477825 -0.052135 53.64660263 -0.0753603 C58.48009954 -0.09014213 63.31352581 -0.09096315 68.14704132 -0.08785057 C70.45455766 -0.08836179 72.76207816 -0.0935619 75.06957245 -0.10366249 C78.30699016 -0.11609239 81.54384037 -0.10919524 84.78125 -0.09765625 C85.72188293 -0.10529999 86.66251587 -0.11294373 87.63165283 -0.12081909 C104.4736793 0.01089516 119.22133413 7.2536431 131.39941406 18.5871582 C145.77715068 33.8248073 148.97233192 52.80244622 148.95019531 72.9152832 C148.95409539 74.41062536 148.95843268 75.90596644 148.96318054 77.40130615 C148.97059586 80.52107345 148.97038655 83.6407275 148.96508789 86.76049805 C148.95930971 90.7149058 148.97620707 94.66884265 148.99943256 98.62317276 C149.01432638 101.70856333 149.01502046 104.79384467 149.01192284 107.87926483 C149.01242857 109.33498819 149.0175218 110.79071893 149.02773476 112.24640656 C149.14268374 130.92221752 145.9029883 148.2054794 132.64941406 162.2746582 C117.3921251 176.75942621 100.15784506 181.57384995 79.60644531 181.2043457 C77.45867232 181.19344241 75.31088119 181.18573109 73.16308594 181.1809082 C69.81555315 181.17307371 66.47243187 181.14990143 63.12573242 181.07250977 C47.39986209 180.37205362 47.39986209 180.37205362 34.03613281 187.5012207 C32.16261721 189.36968701 30.41436758 191.29896135 28.64941406 193.2746582 C27.3871473 194.34169239 26.10046136 195.38175836 24.77441406 196.3684082 C18.33292045 201.32835828 12.03329528 206.39598116 5.91113281 211.74731445 C1.66593708 215.41411591 -0.60664647 217.33002136 -6.28808594 217.1496582 C-10.20641669 216.5564156 -12.48190637 215.05369153 -15.35058594 212.2746582 C-14.69058594 212.2746582 -14.03058594 212.2746582 -13.35058594 212.2746582 C-13.68058594 211.6146582 -14.01058594 210.9546582 -14.35058594 210.2746582 C-14.43617712 208.09640859 -14.45772006 205.91550566 -14.44824219 203.7355957 C-14.44501953 202.43364258 -14.44179688 201.13168945 -14.43847656 199.7902832 C-14.4301206 198.41007421 -14.42165564 197.02986588 -14.41308594 195.6496582 C-14.40807095 194.26163895 -14.40350804 192.87361798 -14.39941406 191.4855957 C-14.3875957 188.08190688 -14.37112028 184.67830381 -14.35058594 181.2746582 C-15.37796875 180.9343457 -16.40535156 180.5940332 -17.46386719 180.2434082 C-26.52618392 177.12176081 -33.97954833 173.57850854 -41.35058594 167.2746582 C-41.99253906 166.74356445 -42.63449219 166.2124707 -43.29589844 165.6652832 C-53.28296577 156.61870204 -59.15339145 143.39718527 -61.35058594 130.2746582 C-61.46193255 127.77999071 -61.52793368 125.31161596 -61.54345703 122.81665039 C-61.55163452 122.08244873 -61.55981201 121.34824707 -61.5682373 120.59179688 C-61.59298536 118.16838359 -61.60959078 115.74502899 -61.62402344 113.3215332 C-61.62934711 112.48679726 -61.63467079 111.65206131 -61.64015579 110.79203033 C-61.66685677 106.36339743 -61.68623111 101.93479226 -61.70068359 97.50610352 C-61.71394771 93.87303062 -61.74166368 90.24052942 -61.78271484 86.60766602 C-61.8325842 82.19272138 -61.85687117 77.77828938 -61.86391068 73.36307526 C-61.87054062 71.69683476 -61.88554069 70.0306019 -61.90980148 68.36452484 C-62.13222017 52.14958644 -59.44996692 37.46971901 -49.35058594 24.2746582 C-48.84011719 23.57211914 -48.32964844 22.86958008 -47.80371094 22.14575195 C-40.17287864 12.49388239 -28.82864019 6.18977534 -17.35058594 2.2746582 C-16.3502533 1.93026199 -15.34992065 1.58586578 -14.3192749 1.23103333 C-9.57861539 -0.10220661 -4.8935174 -0.01277844 0 0 Z M-28.44824219 34.1730957 C-36.47891138 43.044759 -39.45453557 53.83743411 -39.49584961 65.65625 C-39.50222946 66.90162033 -39.50860931 68.14699066 -39.5151825 69.43009949 C-39.51671199 70.77802491 -39.51782551 72.12595086 -39.51855469 73.47387695 C-39.52177353 74.87384575 -39.52513806 76.27381423 -39.52864075 77.67378235 C-39.53461439 80.60479511 -39.53648258 83.53577846 -39.53588867 86.46679688 C-39.53578741 90.19407524 -39.54941 93.92116156 -39.56666088 97.64839458 C-39.57786818 100.54060199 -39.57980519 103.43276434 -39.57927895 106.32499123 C-39.5804471 107.69749421 -39.58480213 109.06999882 -39.59261131 110.44248009 C-39.66829812 125.12406782 -38.40941762 137.89036686 -28.10058594 149.1496582 C-18.82955593 157.64640439 -7.13944929 159.59470176 5.02368164 159.53344727 C5.90158859 159.5369519 6.77949554 159.54045654 7.68400574 159.54406738 C10.55406875 159.55278917 13.42388028 159.54706802 16.29394531 159.5402832 C18.31117296 159.54163296 20.32840029 159.54357607 22.34562683 159.54608154 C26.56256219 159.5490202 30.77941247 159.54477711 34.99633789 159.53540039 C40.36892664 159.52402876 45.74131502 159.53055891 51.11389637 159.54254532 C55.27749607 159.54981684 59.4410493 159.54745146 63.6046505 159.54228973 C65.58395093 159.54096668 67.56325574 159.54255315 69.54255104 159.54724884 C95.17263154 159.60531611 95.17263154 159.60531611 116.45019531 146.5012207 C126.15656157 136.67417138 126.11458335 125.27814383 126.08300781 112.3762207 C126.08757792 110.73391506 126.09288594 109.09161132 126.09889221 107.4493103 C126.10779157 104.01829223 126.10543716 100.58750731 126.09545898 97.15649414 C126.08398129 92.78674115 126.10417822 88.41779776 126.13337612 84.04815102 C126.1518342 80.65922031 126.15142654 77.27048012 126.1457386 73.88151169 C126.14558652 72.27176148 126.15153636 70.66199742 126.16403008 69.05229568 C126.24337786 57.15383289 124.97956136 47.04818793 117.64941406 37.2746582 C116.65941406 35.7896582 116.65941406 35.7896582 115.64941406 34.2746582 C114.98941406 34.2746582 114.32941406 34.2746582 113.64941406 34.2746582 C113.64941406 33.6146582 113.64941406 32.9546582 113.64941406 32.2746582 C99.76050283 20.48714253 82.02697691 22.11897479 64.92675781 22.1418457 C63.1318002 22.14117035 61.33684268 22.1401984 59.54188538 22.13894653 C55.79931763 22.13748084 52.05677392 22.13958781 48.31420898 22.14428711 C43.54463001 22.14998784 38.77510728 22.14669598 34.00553036 22.14071465 C30.30525802 22.13708195 26.60499878 22.13825994 22.90472603 22.14084244 C21.14705969 22.14150401 19.38939212 22.14071056 17.63172722 22.13836288 C-7.37178456 21.79965777 -7.37178456 21.79965777 -28.44824219 34.1730957 Z " fill="#1A60FC" transform="translate(303.3505859375,395.725341796875)"/>
<path d="M0 0 C0.97195313 -0.020625 1.94390625 -0.04125 2.9453125 -0.0625 C3.87859375 -0.06765625 4.811875 -0.0728125 5.7734375 -0.078125 C6.63114746 -0.0874707 7.48885742 -0.09681641 8.37255859 -0.10644531 C11.1772957 0.33739993 11.91252218 1.01707232 13.625 3.25 C14.50995999 4.73667064 15.33709909 6.25847903 16.12109375 7.80078125 C16.59135986 8.71625732 17.06162598 9.6317334 17.54614258 10.57495117 C18.04654053 11.56084229 18.54693848 12.5467334 19.0625 13.5625 C20.13634764 15.64929936 21.21191453 17.73521476 22.2890625 19.8203125 C23.11519043 21.41987793 23.11519043 21.41987793 23.95800781 23.05175781 C26.5605925 28.04500025 29.23898257 32.9955799 31.9375 37.9375 C32.43596436 38.85088135 32.93442871 39.7642627 33.44799805 40.70532227 C36.68725568 46.61105847 40.02044392 52.44439808 43.515625 58.203125 C44.625 60.25 44.625 60.25 44.625 62.25 C45.615 62.745 45.615 62.745 46.625 63.25 C47.02847656 62.49203125 47.43195312 61.7340625 47.84765625 60.953125 C50.10442317 56.71749452 52.36443402 52.48360384 54.625 48.25 C55.17736328 47.21504395 55.72972656 46.18008789 56.29882812 45.11376953 C64.31173933 30.10576837 72.37848437 15.13144608 80.625 0.25 C84.10414941 0.22112186 87.58326831 0.20324313 91.0625 0.1875 C92.55233398 0.17493164 92.55233398 0.17493164 94.07226562 0.16210938 C95.01650391 0.15888672 95.96074219 0.15566406 96.93359375 0.15234375 C98.24541626 0.14448853 98.24541626 0.14448853 99.58374023 0.13647461 C101.625 0.25 101.625 0.25 102.625 1.25 C102.72068576 2.73016394 102.74688268 4.21488273 102.74525452 5.69813538 C102.74731651 7.13901772 102.74731651 7.13901772 102.74942017 8.60900879 C102.74402725 10.20259216 102.74402725 10.20259216 102.73852539 11.82836914 C102.73867142 12.94042221 102.73881744 14.05247528 102.7389679 15.19822693 C102.73826821 18.89388951 102.7304732 22.58950241 102.72265625 26.28515625 C102.72079227 28.83963493 102.71936827 31.39411397 102.71836853 33.94859314 C102.71493344 39.9976171 102.70704264 46.04661955 102.69701904 52.09563488 C102.68585683 58.98065154 102.68034718 65.86566904 102.67532361 72.75069249 C102.66486 86.91714013 102.64651495 101.08356506 102.625 115.25 C95.695 115.25 88.765 115.25 81.625 115.25 C81.625 89.84 81.625 64.43 81.625 38.25 C78.985 43.53 76.345 48.81 73.625 54.25 C72.11034898 57.18719088 70.59232863 60.11854436 69.046875 63.0390625 C68.66815247 63.75685883 68.28942993 64.47465515 67.89923096 65.21420288 C67.11734156 66.69456154 66.33453685 68.17443713 65.55078125 69.65380859 C64.358276 71.90659363 63.17125537 74.16221616 61.984375 76.41796875 C61.21386956 77.87517342 60.44304814 79.33221107 59.671875 80.7890625 C59.32388855 81.45161041 58.9759021 82.11415833 58.61737061 82.79678345 C52.74695455 93.83702147 52.74695455 93.83702147 49.15234375 95.16015625 C48.29769531 95.21042969 47.44304688 95.26070312 46.5625 95.3125 C45.70527344 95.38597656 44.84804688 95.45945312 43.96484375 95.53515625 C41.01049027 95.17510983 40.52388503 94.5016554 38.625 92.25 C37.56865945 90.43722187 36.57426203 88.58783805 35.62109375 86.71875 C35.04979736 85.60653076 34.47850098 84.49431152 33.88989258 83.34838867 C33.2807085 82.14895281 32.67157872 80.94948937 32.0625 79.75 C31.43643994 78.52741813 30.80972644 77.30517066 30.18237305 76.08325195 C29.23510565 74.23813462 28.2881996 72.39284492 27.34339905 70.54646301 C24.19276615 64.39108229 20.96898922 58.27544433 17.73413086 52.1640625 C17.36425049 51.46410156 16.99437012 50.76414062 16.61328125 50.04296875 C16.29915283 49.4502417 15.98502441 48.85751465 15.66137695 48.24682617 C14.28587501 45.59659521 12.96034488 42.92068976 11.625 40.25 C11.625 65 11.625 89.75 11.625 115.25 C0.735 115.745 0.735 115.745 -10.375 116.25 C-11.78707081 113.42585838 -11.45074909 111.12155816 -11.39672852 107.96435547 C-11.38712097 107.32032776 -11.37751343 106.67630005 -11.36761475 106.01275635 C-11.33459357 103.88078993 -11.29427337 101.74902645 -11.25390625 99.6171875 C-11.22960816 98.14031696 -11.20576445 96.66343889 -11.18235779 95.18655396 C-11.11948579 91.29680807 -11.05042803 87.40719544 -10.98010254 83.51757812 C-10.90944718 79.54954097 -10.84461349 75.58140924 -10.77929688 71.61328125 C-10.65024439 63.82541623 -10.51466008 56.03768278 -10.375 48.25 C-11.035 47.92 -11.695 47.59 -12.375 47.25 C-11.715 47.25 -11.055 47.25 -10.375 47.25 C-10.38974869 46.67592911 -10.40449738 46.10185822 -10.41969299 45.51039124 C-10.57163377 39.55760406 -10.71649862 33.60467508 -10.85717773 27.65161133 C-10.91068392 25.42728264 -10.96601963 23.2029972 -11.02319336 20.97875977 C-11.1048646 17.78932018 -11.18004388 14.59978501 -11.25390625 11.41015625 C-11.28094131 10.40912369 -11.30797638 9.40809113 -11.33583069 8.37672424 C-11.35592697 7.45584518 -11.37602325 6.53496613 -11.39672852 5.58618164 C-11.41671402 4.77121719 -11.43669952 3.95625275 -11.45729065 3.11659241 C-11.23928342 -1.82844857 -3.67444871 0.0193392 0 0 Z " fill="#1A60FC" transform="translate(503.375,429.75)"/>
<path d="M0 0 C1.83837134 1.57830905 3.38444509 3.18250073 5 5 C7.70133777 3.71166968 10.10643472 2.2653012 12.5625 0.5625 C21.39627296 -4.89365389 29.36607538 -5.56425607 39.5390625 -3.8515625 C46.9385978 -2.03090935 51.44370666 1.60272267 55.75 7.828125 C61.31475367 17.4968845 61.14867055 28.32190856 61.09765625 39.15625 C61.0962413 40.29912476 61.09482635 41.44199951 61.09336853 42.61950684 C61.08780025 46.24636525 61.07525362 49.87316045 61.0625 53.5 C61.0574809 55.9687491 61.05291871 58.43749918 61.04882812 60.90625 C61.03784121 66.93752133 61.02113485 72.96875615 61 79 C57.34657606 80.82671197 53.02160841 80.18470722 49 80.1875 C48.071875 80.19974609 47.14375 80.21199219 46.1875 80.22460938 C45.300625 80.22654297 44.41375 80.22847656 43.5 80.23046875 C42.27796875 80.23663208 42.27796875 80.23663208 41.03125 80.24291992 C39 80 39 80 37 78 C37.66 78 38.32 78 39 78 C38.93293641 70.56152554 38.84310403 63.12357403 38.73754883 55.68554688 C38.70432486 53.15598775 38.67628511 50.62635495 38.65356445 48.09667969 C38.61997296 44.45736333 38.56765246 40.81872066 38.51171875 37.1796875 C38.50532883 36.05134491 38.4989389 34.92300232 38.49235535 33.76046753 C38.35460745 25.95544908 38.35460745 25.95544908 35 19 C30.3032131 15.86880874 25.49162696 16.32533513 20 17 C16.78292383 18.20716953 16.21148929 19.09014567 14 22 C11.80777544 28.93795502 11.72849813 36.05074384 11.8046875 43.2578125 C11.80893234 44.80140945 11.80893234 44.80140945 11.81326294 46.37619019 C11.82435521 49.62591756 11.84943885 52.87535754 11.875 56.125 C11.88504397 58.34374599 11.89416733 60.56249634 11.90234375 62.78125 C11.92254721 68.18769671 11.96171658 73.59353103 12 79 C1.605 79.495 1.605 79.495 -9 80 C-9.69794039 76.51029807 -10.1209415 74.07367259 -10.08178711 70.65966797 C-10.0752562 69.8346579 -10.06872528 69.00964783 -10.06199646 68.15963745 C-10.05056107 67.27937897 -10.03912567 66.39912048 -10.02734375 65.4921875 C-10.01468829 63.59896022 -10.00232802 61.70573095 -9.99023438 59.8125 C-9.96553492 56.85052158 -9.93765485 53.88864909 -9.90405273 50.92675781 C-8.65362566 33.76221399 -8.65362566 33.76221399 -14.125 18.375 C-19.41848809 15.84333178 -23.217643 15.49499885 -28.75 17.0625 C-32.49688255 19.29621844 -33.99819978 21.1503842 -36 25 C-36.85078002 28.40432115 -37.12257393 31.56389002 -37.11352539 35.06567383 C-37.11341209 36.53663261 -37.11341209 36.53663261 -37.11329651 38.03730774 C-37.10813522 39.0833165 -37.10297394 40.12932526 -37.09765625 41.20703125 C-37.09553383 42.82782845 -37.09553383 42.82782845 -37.09336853 44.48136902 C-37.0877808 47.92510776 -37.0752305 51.36878098 -37.0625 54.8125 C-37.05748342 57.15038968 -37.05292079 59.48828039 -37.04882812 61.82617188 C-37.03866722 67.55082668 -37.01908927 73.27534017 -37 79 C-44.26 79 -51.52 79 -59 79 C-59.15370068 69.63750246 -59.30253376 60.27496147 -59.4429636 50.91225529 C-59.50837224 46.56408924 -59.57585553 42.21597665 -59.64819336 37.86791992 C-59.71801495 33.66640635 -59.7822389 29.46484008 -59.84269524 25.26318169 C-59.86664279 23.6657142 -59.89255663 22.06827486 -59.92053413 20.47087288 C-59.95958214 18.22159342 -59.99143191 15.97231255 -60.02172852 13.72290039 C-60.04171402 12.44604874 -60.06169952 11.16919708 -60.08229065 9.85365295 C-59.9904958 5.55492044 -59.47482381 1.27341431 -59 -3 C-52.07 -3 -45.14 -3 -38 -3 C-37.67 -1.02 -37.34 0.96 -37 3 C-35.6078125 1.8553125 -35.6078125 1.8553125 -34.1875 0.6875 C-24.00674538 -6.50252992 -10.36108697 -7.12617746 0 0 Z " fill="#1A60FC" transform="translate(1207,466)"/>
<path d="M0 0 C0.66 0.66 1.32 1.32 2 2 C2.66 0.02 3.32 -1.96 4 -4 C10.93 -4 17.86 -4 25 -4 C25.02267682 5.58880682 25.04098756 15.17759555 25.05181217 24.76642323 C25.05700988 29.21986202 25.0640504 33.67328137 25.07543945 38.12670898 C25.08637969 42.43204118 25.09230022 46.73735478 25.09487724 51.04269981 C25.09671156 52.67756124 25.10029312 54.31242175 25.10573006 55.94727516 C25.21363555 89.7677196 25.21363555 89.7677196 13.09765625 102.1328125 C4.14033286 110.10599794 -5.99738348 112.56868652 -17.8125 112.4375 C-19.25544434 112.42614014 -19.25544434 112.42614014 -20.72753906 112.41455078 C-32.7311156 112.1377938 -42.02185182 108.75721096 -52 102 C-49.94235079 95.54646385 -47.57616518 89.2638737 -45 83 C-44.28714844 83.40992188 -43.57429687 83.81984375 -42.83984375 84.2421875 C-32.7797266 89.90184964 -22.22254818 93.99275166 -10.625 90.8125 C-6.7450172 89.42898791 -3.75149921 88.16839303 -1 85 C1.08204738 80.48889735 2.48516335 76.01335466 2 71 C1.52949219 71.34933594 1.05898438 71.69867187 0.57421875 72.05859375 C-0.04839844 72.51363281 -0.67101562 72.96867188 -1.3125 73.4375 C-1.92738281 73.88996094 -2.54226563 74.34242188 -3.17578125 74.80859375 C-10.14017062 79.35707075 -20.01902792 78.85237393 -28 78 C-37.69030348 75.64349438 -44.49258438 70.60560174 -49.75 62.203125 C-56.74047364 49.23041911 -57.72163697 35.17766465 -54 21 C-50.51032111 12.15659015 -45.65254911 5.61668631 -39 -1 C-38.34 -1.66 -37.68 -2.32 -37 -3 C-35.68 -3 -34.36 -3 -33 -3 C-31.13741171 -3.48986349 -29.28375408 -4.01427808 -27.4375 -4.5625 C-17.10469297 -7.18650567 -9.0150202 -5.66305574 0 0 Z M-28.75 19.8125 C-33.97619614 27.21627787 -33.75262253 35.23194755 -33 44 C-31.43488777 49.86917087 -28.14685615 53.75938687 -23 57 C-17.24973317 59.10328552 -12.38689665 59.6380291 -6.75 57.046875 C-1.79949631 54.08541297 0.81173826 50.22478224 3 45 C3.3118072 42.28924375 3.47732645 39.88670571 3.4375 37.1875 C3.43137695 36.48334961 3.42525391 35.77919922 3.41894531 35.05371094 C3.20653877 27.95933239 1.39141453 23.10883889 -2.875 17.5625 C-11.21836206 11.42767496 -21.70341759 12.60576799 -28.75 19.8125 Z " fill="#1A60FC" transform="translate(972,467)"/>
<path d="M0 0 C6.6 0 13.2 0 20 0 C20.33 37.95 20.66 75.9 21 115 C13.74 115 6.48 115 -1 115 C-1 113.02 -1 111.04 -1 109 C-1.64066406 109.40992188 -2.28132812 109.81984375 -2.94140625 110.2421875 C-12.96897864 116.48887194 -22.34808602 118.71604984 -34.125 116.375 C-43.73849366 113.46302889 -50.75585873 107.46571535 -56 99 C-62.30671446 85.19834951 -63.47677366 69.17639036 -58.2578125 54.796875 C-54.02586 45.3866949 -47.75704535 37.85622528 -38.1875 33.625 C-28.4637112 30.19569433 -19.67653168 30.45193839 -10 34 C-6.78016517 35.65016535 -3.57690697 37.42309303 -1 40 C-1.00523682 38.82381104 -1.01047363 37.64762207 -1.01586914 36.43579102 C-1.03391663 32.08797969 -1.04543108 27.7401717 -1.05493164 23.39233398 C-1.05997244 21.5075627 -1.06680498 19.62279535 -1.07543945 17.73803711 C-1.08751617 15.03498364 -1.09323068 12.33198169 -1.09765625 9.62890625 C-1.10281754 8.78099014 -1.10797882 7.93307404 -1.11329651 7.0594635 C-1.11349195 5.03928932 -1.06206211 3.01922066 -1 1 C-0.67 0.67 -0.34 0.34 0 0 Z M-36 59 C-40.18592158 66.77385436 -40.70313328 74.20777691 -38.7265625 82.70703125 C-36.97534676 88.23371749 -33.69064911 91.75262754 -29 95 C-22.74251171 97.08582943 -15.39543597 97.1346802 -9.4375 94.3125 C-4.14830936 89.2945499 -1.35989017 85.02890033 -0.69921875 77.6328125 C-0.67050168 69.03683711 -0.7745887 62.24927014 -6.8125 55.625 C-11.29941029 51.56803934 -15.95884317 50.5660143 -21.984375 50.75 C-28.01405493 51.49786728 -32.23155735 54.39412565 -36 59 Z " fill="#195EFB" transform="translate(764,430)"/>
<path d="M0 0 C8.98703447 8.86651868 11.90101142 20.28612475 12.2265625 32.63671875 C12.19641302 36.16420836 11.6809407 38.83057974 10.0390625 42.01171875 C9.31854202 41.85095352 8.59802155 41.69018829 7.85566711 41.52455139 C5.16955712 41.03547853 2.69924046 40.8557013 -0.02661133 40.80639648 C-1.00725052 40.78645126 -1.98788971 40.76650604 -2.99824524 40.74595642 C-4.044254 40.72924393 -5.09026276 40.71253143 -6.16796875 40.6953125 C-7.24850021 40.6745314 -8.32903168 40.65375031 -9.44230652 40.63233948 C-12.88595361 40.56707839 -16.32967545 40.508068 -19.7734375 40.44921875 C-22.11133578 40.40601124 -24.44922657 40.36239624 -26.78710938 40.31835938 C-32.51164028 40.21142103 -38.23624515 40.10961148 -43.9609375 40.01171875 C-43.9609375 40.67171875 -43.9609375 41.33171875 -43.9609375 42.01171875 C-43.3009375 42.34171875 -42.6409375 42.67171875 -41.9609375 43.01171875 C-41.8578125 43.73359375 -41.7546875 44.45546875 -41.6484375 45.19921875 C-40.70795134 49.04666214 -39.01550274 51.57226047 -35.9609375 54.01171875 C-29.76421654 57.00734127 -23.61365161 57.78897811 -16.9609375 56.01171875 C-12.01708105 54.11984589 -7.95184639 51.50376403 -3.9609375 48.01171875 C-2.9709375 48.75421875 -1.9809375 49.49671875 -0.9609375 50.26171875 C2.85034468 52.99742436 6.80350419 55.00540165 11.0390625 57.01171875 C9.3890625 59.98171875 7.7390625 62.95171875 6.0390625 66.01171875 C5.3790625 66.01171875 4.7190625 66.01171875 4.0390625 66.01171875 C4.0390625 66.67171875 4.0390625 67.33171875 4.0390625 68.01171875 C-5.07602723 76.09151434 -16.16612151 77.7908728 -27.95703125 77.35546875 C-39.48116438 76.58110895 -48.00462249 72.16934063 -55.92578125 63.98046875 C-63.99489835 54.56365556 -66.65159913 42.18229666 -65.9609375 30.01171875 C-65.02772265 18.81314051 -60.96941 9.02019125 -52.9609375 1.01171875 C-37.56909938 -11.00575486 -15.56821057 -13.12020573 0 0 Z M-40.796875 16.96484375 C-42.39758873 19.50585659 -42.39758873 19.50585659 -42.9609375 25.01171875 C-31.7409375 25.01171875 -20.5209375 25.01171875 -8.9609375 25.01171875 C-10.92510936 18.13711725 -11.87557586 15.04525256 -17.7109375 11.19921875 C-26.48663454 7.99271406 -34.77230417 9.94154728 -40.796875 16.96484375 Z " fill="#195FFB" transform="translate(683.9609375,469.98828125)"/>
<path d="M0 0 C8.43526092 8.17229116 9.89967014 18.23908812 10.18164062 29.59326172 C10.21183881 32.92673005 10.19609548 36.25820341 10.1574707 39.59155273 C10.02850882 51.84072687 10.62287805 64.0759483 11.125 76.3125 C8.24969919 77.2709336 6.83450069 77.37906387 3.89453125 77.19140625 C3.09208984 77.14306641 2.28964844 77.09472656 1.46289062 77.04492188 C0.62951172 76.98884766 -0.20386719 76.93277344 -1.0625 76.875 C-1.90748047 76.82279297 -2.75246094 76.77058594 -3.62304688 76.71679688 C-5.70736299 76.58726311 -7.79123182 76.45056823 -9.875 76.3125 C-10.535 74.3325 -11.195 72.3525 -11.875 70.3125 C-12.679375 71.075625 -13.48375 71.83875 -14.3125 72.625 C-20.64308413 77.81932544 -27.78303061 78.88937924 -35.8125 78.6640625 C-43.59951789 77.77014463 -50.45263738 74.99936812 -55.875 69.3125 C-60.86825653 62.30583359 -61.24547398 55.96953848 -60.5078125 47.609375 C-59.24975265 41.05503848 -55.07700741 35.40290063 -49.76171875 31.37109375 C-37.91829691 24.72602684 -24.98988125 25.15698757 -11.875 25.3125 C-12.07837627 23.89190157 -12.3140141 22.47590602 -12.5625 21.0625 C-12.69011719 20.27359375 -12.81773437 19.4846875 -12.94921875 18.671875 C-14.24886533 15.35969553 -15.86300309 14.16475295 -18.875 12.3125 C-24.6226757 11.33417222 -30.0878591 11.52866627 -35.4375 13.875 C-38.38818004 16.82568004 -40.01199236 19.58648473 -41.875 23.3125 C-47.74912964 21.51762705 -53.64530576 19.60774101 -58.875 16.3125 C-59.205 15.6525 -59.535 14.9925 -59.875 14.3125 C-56.48112393 4.88043951 -50.55438706 -0.1339265 -41.875 -4.6875 C-28.79059722 -10.07519526 -11.35701237 -8.79252571 0 0 Z M-36 43.9375 C-38.62319458 47.26021313 -39.25007289 50.11168363 -38.875 54.3125 C-37.82632461 57.45793211 -37.82632461 57.45793211 -34.875 59.3125 C-28.19589261 61.01129351 -22.80312681 60.82098321 -16.875 57.3125 C-13.23787606 54.46178124 -11.84774579 51.82250323 -10.875 47.3125 C-11.17391234 43.54507221 -11.17391234 43.54507221 -11.875 40.3125 C-20.11443293 39.99078678 -28.54872563 40.06283733 -36 43.9375 Z " fill="#1A5FFB" transform="translate(895.875,468.6875)"/>
<path d="M0 0 C9.8010803 10.50115746 9.95271853 23.72794671 9.8203125 37.45703125 C9.8174826 38.59283127 9.81465271 39.72863129 9.81173706 40.89884949 C9.80067328 44.47434695 9.77559563 48.04958014 9.75 51.625 C9.73995233 54.07095989 9.73082963 56.51692376 9.72265625 58.96289062 C9.70077938 64.91285996 9.66634722 70.86263541 9.625 76.8125 C3.025 76.8125 -3.575 76.8125 -10.375 76.8125 C-10.87 73.3475 -10.87 73.3475 -11.375 69.8125 C-12.15875 70.555 -12.9425 71.2975 -13.75 72.0625 C-20.76004337 77.79799003 -28.2377691 79.49863498 -37.1875 79.203125 C-44.90831451 78.25694675 -51.82700212 75.16865295 -56.78125 69.0859375 C-61.43810729 62.17826585 -61.41720106 54.88309831 -60.375 46.8125 C-58.17864327 38.89931043 -53.3701202 33.90915278 -46.375 29.8125 C-38.09517226 26.00293579 -29.34499068 25.64895158 -20.375 25.75 C-19.60027344 25.75451172 -18.82554688 25.75902344 -18.02734375 25.76367188 C-16.14319476 25.77530242 -14.25908635 25.79323094 -12.375 25.8125 C-12.49875 24.554375 -12.6225 23.29625 -12.75 22 C-12.85441406 20.93845703 -12.85441406 20.93845703 -12.9609375 19.85546875 C-13.30165391 17.51261858 -13.30165391 17.51261858 -15.375 14.8125 C-16.365 14.8125 -17.355 14.8125 -18.375 14.8125 C-18.87 13.3275 -18.87 13.3275 -19.375 11.8125 C-25.72152453 12.1399897 -30.78583195 12.51632397 -36.375 15.8125 C-37.035 15.8125 -37.695 15.8125 -38.375 15.8125 C-38.684375 16.76125 -38.99375 17.71 -39.3125 18.6875 C-40.375 21.8125 -40.375 21.8125 -41.375 23.8125 C-45.59275732 22.45724464 -49.66921322 20.91049886 -53.75 19.1875 C-54.80960938 18.74148438 -55.86921875 18.29546875 -56.9609375 17.8359375 C-57.75757813 17.49820312 -58.55421875 17.16046875 -59.375 16.8125 C-57.99880708 8.52667182 -53.5337455 3.17471177 -46.83984375 -1.71484375 C-42.87791153 -4.08195698 -38.8644283 -5.23679754 -34.375 -6.1875 C-32.7353125 -6.55875 -32.7353125 -6.55875 -31.0625 -6.9375 C-20.3338386 -7.66486687 -8.92075533 -6.56004654 0 0 Z M-36.5 45.125 C-38.45028684 47.92041114 -39.29019146 49.42015843 -39.375 52.8125 C-38.61302271 56.01280462 -37.78717114 57.450289 -35.3125 59.625 C-30.52076066 61.56208612 -26.11829773 61.62389792 -21.15625 60.15625 C-16.83472022 58.28573711 -14.0883346 56.07295577 -11.984375 51.828125 C-10.88267829 48.18405128 -11.06801446 44.57307291 -11.375 40.8125 C-24.63857411 40.18991114 -24.63857411 40.18991114 -36.5 45.125 Z " fill="#1A5FFB" transform="translate(1123.375,468.1875)"/>
<path d="M0 0 C1 1 1 1 1.11352539 3.13305664 C1.10828857 4.04949951 1.10305176 4.96594238 1.09765625 5.91015625 C1.09443359 6.89951172 1.09121094 7.88886719 1.08789062 8.90820312 C1.07532227 10.46958008 1.07532227 10.46958008 1.0625 12.0625 C1.05798828 13.10728516 1.05347656 14.15207031 1.04882812 15.22851562 C1.03699913 17.8190666 1.02051689 20.40950559 1 23 C-0.10516968 22.97824707 -0.10516968 22.97824707 -1.23266602 22.95605469 C-2.69724243 22.93913574 -2.69724243 22.93913574 -4.19140625 22.921875 C-5.15506104 22.90737305 -6.11871582 22.89287109 -7.11157227 22.87792969 C-12.52064182 23.106527 -17.1458796 24.57375354 -21.4375 27.875 C-26.70691863 35.04140933 -26.14906178 44.22901956 -26.09765625 52.75 C-26.09553383 54.09807739 -26.09553383 54.09807739 -26.09336853 55.47338867 C-26.08781583 58.31562775 -26.07527237 61.15778513 -26.0625 64 C-26.05747888 65.93880094 -26.05291705 67.87760312 -26.04882812 69.81640625 C-26.03786194 74.54430183 -26.02063044 79.27213711 -26 84 C-29.21341369 85.60670684 -32.62958968 84.82510855 -36.125 84.5625 C-36.87910156 84.51029297 -37.63320313 84.45808594 -38.41015625 84.40429688 C-40.2737937 84.27454996 -42.13694996 84.13792512 -44 84 C-44.495 84.99 -44.495 84.99 -45 86 C-45 85.34 -45 84.68 -45 84 C-46.32 83.67 -47.64 83.34 -49 83 C-49 56.27 -49 29.54 -49 2 C-41.74 2 -34.48 2 -27 2 C-26.67 3.65 -26.34 5.3 -26 7 C-25.67516582 8.33542939 -25.3449145 9.66961551 -25 11 C-24.773125 10.4225 -24.54625 9.845 -24.3125 9.25 C-21.73441463 4.83042508 -17.78524857 2.51727394 -13 1 C-8.62704648 0.04935793 -4.47117286 -0.17534011 0 0 Z " fill="#1A61FE" transform="translate(1060,461)"/>
<path d="M0 0 C7.26 0 14.52 0 22 0 C22 27.06 22 54.12 22 82 C15.07 82 8.14 82 1 82 C0.67 54.94 0.34 27.88 0 0 Z " fill="#1A60FE" transform="translate(801,463)"/>
<path d="M0 0 C5.04649049 3.00641987 7.39020562 6.69149271 8.875 12.3125 C9.04928989 17.45405169 8.09204938 21.69133515 4.56640625 25.58203125 C-0.15307942 29.66597521 -3.87050242 30.41555916 -10 30 C-15.2590971 28.10672504 -17.79008594 25.40216785 -21 21 C-21.33 20.01 -21.66 19.02 -22 18 C-22.66 17.67 -23.32 17.34 -24 17 C-21.96583084 9.55791771 -19.73008457 4.68913074 -13.3125 0.0625 C-8.65977927 -1.42988212 -4.72260428 -1.16090774 0 0 Z " fill="#195FFB" transform="translate(312,472)"/>
<path d="M0 0 C4.50331308 2.47306247 7.3507347 5.21616578 9.3515625 9.98046875 C10.38231741 13.93998933 10.2296077 17.28379214 8.91796875 21.15625 C6.63234574 25.0469869 4.08163545 27.53562776 0.10546875 29.65625 C-4.98339021 30.45450239 -9.57464048 30.61414577 -14.14453125 27.95703125 C-18.01254164 24.88679801 -20.28113806 22.16183242 -21.08203125 17.15625 C-20.98173362 10.83749957 -19.54807236 6.70655604 -15.08203125 2.15625 C-10.2390591 -1.1074921 -5.57868334 -2.26077974 0 0 Z " fill="#195EFA" transform="translate(394.08203125,471.84375)"/>
<path d="M0 0 C3.62425971 2.12613148 5.56671649 5.18452447 6.87109375 9.09765625 C7.43198171 14.76046737 7.2195075 19.29826321 3.87109375 24.09765625 C-1.43884883 28.19073699 -5.41870046 29.65684007 -12.12890625 29.09765625 C-16.97267343 27.41902295 -20.19502321 24.68260594 -22.46875 20.0859375 C-24.14598668 15.0343785 -23.93479647 10.09252559 -21.62890625 5.28515625 C-16.57785438 -2.31800604 -8.02194174 -3.40012577 0 0 Z " fill="#195EFA" transform="translate(355.12890625,472.90234375)"/>
<path d="M0 0 C2.72852671 2.16715518 4.20549525 3.57742325 5.3203125 6.921875 C5.71209248 11.07474277 5.57546456 13.41157087 3.6953125 17.171875 C0.99257728 20.30135788 -0.7486553 21.63672986 -4.6796875 22.921875 C-9.5098104 22.921875 -12.34752251 22.53084287 -16.1171875 19.484375 C-19.32595392 16.27560858 -19.61301168 15.72198478 -19.9921875 11.171875 C-19.94431251 6.78333408 -18.50675174 4.31435208 -15.6796875 0.921875 C-10.77355259 -2.34888161 -5.24818869 -3.36860483 0 0 Z " fill="#1A5DF7" transform="translate(820.6796875,429.078125)"/>
<path d="M0 0 C0.97195313 -0.020625 1.94390625 -0.04125 2.9453125 -0.0625 C3.87859375 -0.06765625 4.811875 -0.0728125 5.7734375 -0.078125 C6.63114746 -0.0874707 7.48885742 -0.09681641 8.37255859 -0.10644531 C11.13720958 0.33105636 11.92238255 1.07192265 13.625 3.25 C15.375 6.3125 15.375 6.3125 16.625 9.25 C16.295 9.91 15.965 10.57 15.625 11.25 C11.625 4.5 11.625 4.5 11.625 2.25 C4.695 2.25 -2.235 2.25 -9.375 2.25 C-9.375 39.21 -9.375 76.17 -9.375 114.25 C-3.105 114.25 3.165 114.25 9.625 114.25 C9.295 87.85 8.965 61.45 8.625 34.25 C13.47079286 35.86526429 14.6205467 40.25620068 16.875 44.625 C17.34679687 45.5015625 17.81859375 46.378125 18.3046875 47.28125 C18.74554687 48.12429688 19.18640625 48.96734375 19.640625 49.8359375 C20.04571289 50.6098584 20.45080078 51.3837793 20.86816406 52.18115234 C21.625 54.25 21.625 54.25 20.625 57.25 C16.17 48.835 16.17 48.835 11.625 40.25 C11.625 65 11.625 89.75 11.625 115.25 C0.735 115.745 0.735 115.745 -10.375 116.25 C-11.78707081 113.42585838 -11.45074909 111.12155816 -11.39672852 107.96435547 C-11.38712097 107.32032776 -11.37751343 106.67630005 -11.36761475 106.01275635 C-11.33459357 103.88078993 -11.29427337 101.74902645 -11.25390625 99.6171875 C-11.22960816 98.14031696 -11.20576445 96.66343889 -11.18235779 95.18655396 C-11.11948579 91.29680807 -11.05042803 87.40719544 -10.98010254 83.51757812 C-10.90944718 79.54954097 -10.84461349 75.58140924 -10.77929688 71.61328125 C-10.65024439 63.82541623 -10.51466008 56.03768278 -10.375 48.25 C-11.035 47.92 -11.695 47.59 -12.375 47.25 C-11.715 47.25 -11.055 47.25 -10.375 47.25 C-10.38974869 46.67592911 -10.40449738 46.10185822 -10.41969299 45.51039124 C-10.57163377 39.55760406 -10.71649862 33.60467508 -10.85717773 27.65161133 C-10.91068392 25.42728264 -10.96601963 23.2029972 -11.02319336 20.97875977 C-11.1048646 17.78932018 -11.18004388 14.59978501 -11.25390625 11.41015625 C-11.28094131 10.40912369 -11.30797638 9.40809113 -11.33583069 8.37672424 C-11.35592697 7.45584518 -11.37602325 6.53496613 -11.39672852 5.58618164 C-11.41671402 4.77121719 -11.43669952 3.95625275 -11.45729065 3.11659241 C-11.23928342 -1.82844857 -3.67444871 0.0193392 0 0 Z " fill="#164BD9" transform="translate(503.375,429.75)"/>
<path d="M0 0 C7.26 0 14.52 0 22 0 C22.73287817 3.66439084 23.39987636 7.31352622 24 11 C23.01 11.33 22.02 11.66 21 12 C21 8.7 21 5.4 21 2 C14.73 2 8.46 2 2 2 C2 28.07 2 54.14 2 81 C8.27 81 14.54 81 21 81 C21 66.81 21 52.62 21 38 C21.33 38 21.66 38 22 38 C22.60971292 52.67040637 23.1864066 67.31530199 23 82 C19.78658631 83.60670684 16.37041032 82.82510855 12.875 82.5625 C12.12089844 82.51029297 11.36679687 82.45808594 10.58984375 82.40429688 C8.7262063 82.27454996 6.86305004 82.13792512 5 82 C4.505 82.99 4.505 82.99 4 84 C4 83.34 4 82.68 4 82 C2.68 81.67 1.36 81.34 0 81 C0 54.27 0 27.54 0 0 Z " fill="#1955EB" transform="translate(1011,463)"/>
<path d="M0 0 C5.03020069 2.42194848 7.06582872 4.82059128 9 10 C9.40664327 14.13610719 9.34886841 18.2459379 9.29296875 22.3984375 C9.28872391 23.58853424 9.28447906 24.77863098 9.28010559 26.00479126 C9.26335169 29.79509375 9.22570416 33.58485898 9.1875 37.375 C9.17244897 39.94921106 9.1587613 42.52343047 9.14648438 45.09765625 C9.1134587 51.3986436 9.0616978 57.69923079 9 64 C15.27 64 21.54 64 28 64 C28 44.53 28 25.06 28 5 C28.33 5 28.66 5 29 5 C30.02861712 11.74829775 30.12976314 18.33743674 30.09765625 25.15625 C30.0962413 26.29912476 30.09482635 27.44199951 30.09336853 28.61950684 C30.08780025 32.24636525 30.07525362 35.87316045 30.0625 39.5 C30.0574809 41.9687491 30.05291871 44.43749918 30.04882812 46.90625 C30.03784121 52.93752133 30.02113485 58.96875615 30 65 C26.34657606 66.82671197 22.02160841 66.18470722 18 66.1875 C17.071875 66.19974609 16.14375 66.21199219 15.1875 66.22460938 C14.300625 66.22654297 13.41375 66.22847656 12.5 66.23046875 C11.27796875 66.23663208 11.27796875 66.23663208 10.03125 66.24291992 C8 66 8 66 6 64 C6.66 64 7.32 64 8 64 C7.93293641 56.56152554 7.84310403 49.12357403 7.73754883 41.68554688 C7.70432486 39.15598775 7.67628511 36.62635495 7.65356445 34.09667969 C7.61997296 30.45736333 7.56765246 26.81872066 7.51171875 23.1796875 C7.50532883 22.05134491 7.4989389 20.92300232 7.49235535 19.76046753 C7.35460745 11.95544908 7.35460745 11.95544908 4 5 C-0.66186542 1.89208972 -5.53956933 2.38129508 -11 3 C-13.52232816 4.06838946 -14.92943591 5.15949858 -17 7 C-15.987668 4.06423721 -15.03642058 3.02487259 -12.4375 1.25 C-8.11876421 -0.32044938 -4.54242611 -0.72450882 0 0 Z " fill="#1A51DC" transform="translate(1238,480)"/>
<path d="M0 0 C7.26 0 14.52 0 22 0 C22 27.06 22 54.12 22 82 C15.07 82 8.14 82 1 82 C0.67 54.94 0.34 27.88 0 0 Z M2 2 C2 28.07 2 54.14 2 81 C8.27 81 14.54 81 21 81 C21 54.93 21 28.86 21 2 C14.73 2 8.46 2 2 2 Z " fill="#174FE2" transform="translate(801,463)"/>
<path d="M0 0 C2.68284735 2.68284735 2.9346018 4.68546379 3.12025452 8.41717529 C3.11803391 9.31430237 3.11581329 10.21142944 3.11352539 11.13574219 C3.11344986 12.15649841 3.11337433 13.17725464 3.11329651 14.22894287 C3.10813522 15.32386047 3.10297394 16.41877808 3.09765625 17.546875 C3.0962413 18.6732135 3.09482635 19.799552 3.09336853 20.96002197 C3.08777199 24.55670835 3.0752201 28.15333244 3.0625 31.75 C3.05748455 34.18880118 3.05292172 36.62760334 3.04882812 39.06640625 C3.03780369 45.04429483 3.0205414 51.02213685 3 57 C8.94 57 14.88 57 21 57 C20.98952637 55.55230225 20.97905273 54.10460449 20.96826172 52.61303711 C20.93197239 47.22520434 20.90906694 41.83738231 20.89013672 36.44946289 C20.88009951 34.12066835 20.86646686 31.79188634 20.84912109 29.46313477 C20.82477273 26.10950621 20.81349385 22.75604479 20.8046875 19.40234375 C20.79436493 18.36665756 20.78404236 17.33097137 20.77340698 16.26390076 C20.7725604 10.76903406 21.16053424 6.1906032 23 1 C24.09328208 4.27984624 23.92741398 5.95068133 23.56640625 9.35546875 C22.73234592 18.99870556 22.89303754 28.64065673 22.9375 38.3125 C22.94252721 40.22851445 22.94708794 42.14453018 22.95117188 44.06054688 C22.96121628 48.7070897 22.98080819 53.35345043 23 58 C12.605 58.495 12.605 58.495 2 59 C1.30480419 55.52402093 0.8775639 53.06475327 0.90234375 49.65966797 C0.90564697 48.8346579 0.9089502 48.00964783 0.91235352 47.15963745 C0.92065186 46.27937897 0.9289502 45.39912048 0.9375 44.4921875 C0.94128662 43.57092072 0.94507324 42.64965393 0.94897461 41.70046997 C0.96523166 37.77584268 0.99320876 33.85132144 1.02050781 29.92675781 C1.20629864 14.93177003 1.20629864 14.93177003 0 0 Z " fill="#1851E4" transform="translate(1196,487)"/>
<path d="M0 0 C6.93 0 13.86 0 21 0 C21.02267682 9.58880682 21.04098756 19.17759555 21.05181217 28.76642323 C21.05700988 33.21986202 21.0640504 37.67328137 21.07543945 42.12670898 C21.08637969 46.43204118 21.09230022 50.73735478 21.09487724 55.04269981 C21.09671156 56.67756124 21.10029312 58.31242175 21.10573006 59.94727516 C21.18318981 84.22521529 21.18318981 84.22521529 18 89 C18.33 60.29 18.66 31.58 19 2 C13.06 2 7.12 2 1 2 C1 4.64 1 7.28 1 10 C0.01 9.67 -0.98 9.34 -2 9 C-1.34 8.67 -0.68 8.34 0 8 C-0.185625 7.05125 -0.37125 6.1025 -0.5625 5.125 C-1 2 -1 2 0 0 Z " fill="#1752E7" transform="translate(976,463)"/>
<path d="M0 0 C4.84579286 1.61526429 5.9955467 6.00620068 8.25 10.375 C8.72179687 11.2515625 9.19359375 12.128125 9.6796875 13.03125 C10.12054687 13.87429688 10.56140625 14.71734375 11.015625 15.5859375 C11.42071289 16.3598584 11.82580078 17.1337793 12.24316406 17.93115234 C13 20 13 20 12 23 C9.03 17.39 6.06 11.78 3 6 C3.020625 9.114375 3.04125 12.22875 3.0625 15.4375 C3.12568424 36.9602102 2.48275353 58.48428829 2 80 C1.67 80 1.34 80 1 80 C0.67 53.6 0.34 27.2 0 0 Z " fill="#1751E7" transform="translate(512,464)"/>
<path d="M0 0 C1 1 1 1 1.11352539 3.13305664 C1.10828857 4.04949951 1.10305176 4.96594238 1.09765625 5.91015625 C1.09443359 6.89951172 1.09121094 7.88886719 1.08789062 8.90820312 C1.07951172 9.94912109 1.07113281 10.99003906 1.0625 12.0625 C1.05798828 13.10728516 1.05347656 14.15207031 1.04882812 15.22851562 C1.03699913 17.8190666 1.02051689 20.40950559 1 23 C-0.08341675 22.97389648 -0.08341675 22.97389648 -1.1887207 22.94726562 C-6.44404026 22.87356217 -11.12215178 22.92119017 -16.1875 24.5 C-17.10917969 24.7784375 -18.03085938 25.056875 -18.98046875 25.34375 C-19.64691406 25.5603125 -20.31335937 25.776875 -21 26 C-18.62636599 23.25158167 -16.47183131 22.05207009 -13 21 C-9.88671875 20.8046875 -9.88671875 20.8046875 -6.6875 20.875 C-4.810625 20.91625 -2.93375 20.9575 -1 21 C-1 14.73 -1 8.46 -1 2 C-11.02805721 2.50140286 -17.38423424 4.33620496 -25 11 C-23.18072855 6.36912721 -19.96388012 3.95676211 -15.5625 1.8125 C-10.37161609 0.16660998 -5.43390831 -0.21309444 0 0 Z " fill="#1954E7" transform="translate(1060,461)"/>
<path d="M0 0 C1.06927734 0.61488281 1.06927734 0.61488281 2.16015625 1.2421875 C12.18127719 6.87991099 22.75642457 11.01478596 34.3125 7.8125 C38.37321166 6.41359455 41.59404934 4.59927813 45 2 C43.72168567 5.97697791 41.31875268 7.25108607 37.8515625 9.16796875 C28.81074534 13.23061443 19.14817996 10.81639661 10.06640625 8.16796875 C7.21241065 7.08090546 5.36300692 5.87856359 3 4 C2.34 4 1.68 4 1 4 C-0.63676257 5.9600281 -0.63676257 5.9600281 -2 8 C-1.125 2.25 -1.125 2.25 0 0 Z " fill="#1850E1" transform="translate(927,550)"/>
<path d="M0 0 C0.33 0 0.66 0 1 0 C1.60971292 14.67040637 2.1864066 29.31530199 2 44 C-1.21341369 45.60670684 -4.62958968 44.82510855 -8.125 44.5625 C-8.87910156 44.51029297 -9.63320313 44.45808594 -10.41015625 44.40429688 C-12.2737937 44.27454996 -14.13694996 44.13792512 -16 44 C-16.33 44.66 -16.66 45.32 -17 46 C-17 45.34 -17 44.68 -17 44 C-17.99 43.67 -18.98 43.34 -20 43 C-13.4 43 -6.8 43 0 43 C0 28.81 0 14.62 0 0 Z " fill="#184ED8" transform="translate(1032,501)"/>
<path d="M0 0 C0.33 0.66 0.66 1.32 1 2 C-0.05410224 4.26425873 -1.15138094 6.39314483 -2.375 8.5625 C-2.705 9.16513672 -3.035 9.76777344 -3.375 10.38867188 C-5.82430686 14.82430686 -5.82430686 14.82430686 -7 16 C-8.61416222 16.31241849 -10.24293118 16.55131336 -11.875 16.75 C-12.75929688 16.86859375 -13.64359375 16.9871875 -14.5546875 17.109375 C-17 17 -17 17 -18.77734375 15.65234375 C-20.1592125 13.78483422 -20.60787257 12.27433909 -21 10 C-20.43345703 10.73669922 -20.43345703 10.73669922 -19.85546875 11.48828125 C-17.28936708 13.57897883 -15.57429067 13.30262202 -12.3125 13.1875 C-10.559375 13.125625 -8.80625 13.06375 -7 13 C-4.69 8.71 -2.38 4.42 0 0 Z " fill="#1851E4" transform="translate(562,508)"/>
<path d="M0 0 C2.14809171 3.22213757 2.29386153 4.27775401 2 8 C1 9 1 9 -1.22485352 9.11352539 C-2.18319092 9.10828857 -3.14152832 9.10305176 -4.12890625 9.09765625 C-5.68061523 9.09282227 -5.68061523 9.09282227 -7.26367188 9.08789062 C-8.35228516 9.07951172 -9.44089844 9.07113281 -10.5625 9.0625 C-12.2012207 9.05573242 -12.2012207 9.05573242 -13.87304688 9.04882812 C-16.58208495 9.03699826 -19.29101599 9.02051543 -22 9 C-22 8.67 -22 8.34 -22 8 C-16.96145894 7.16788724 -12.1874338 6.8921466 -7.0625 6.9375 C-6.03672852 6.94426758 -6.03672852 6.94426758 -4.99023438 6.95117188 C-3.32678396 6.9628044 -1.6633795 6.98073306 0 7 C0 4.69 0 2.38 0 0 Z " fill="#1856F0" transform="translate(884,487)"/>
<path d="M0 0 C0.99 0.33 1.98 0.66 3 1 C2.38511719 1.68835938 2.38511719 1.68835938 1.7578125 2.390625 C1.21898437 3.00421875 0.68015625 3.6178125 0.125 4.25 C-0.40867187 4.85328125 -0.94234375 5.4565625 -1.4921875 6.078125 C-3.07380785 7.95416047 -3.07380785 7.95416047 -4.06640625 10.19921875 C-4.37449219 10.79347656 -4.68257813 11.38773437 -5 12 C-6.32594105 12.36162029 -7.65938457 12.69728039 -9 13 C-9.33 13.99 -9.66 14.98 -10 16 C-10.33 15.34 -10.66 14.68 -11 14 C-9.73253547 12.2267539 -8.46089765 10.45649025 -7.1875 8.6875 C-6.47980469 7.70136719 -5.77210938 6.71523438 -5.04296875 5.69921875 C-3.45369163 3.59942813 -1.92542371 1.77965031 0 0 Z " fill="#1C5AEB" transform="translate(261,412)"/>
<path d="M0 0 C6.6 0 13.2 0 20 0 C20 3.66666667 20 7.33333333 20 11 C19.34 11 18.68 11 18 11 C18 7.7 18 4.4 18 1 C12.06 1 6.12 1 0 1 C0 0.67 0 0.34 0 0 Z " fill="#144EE4" transform="translate(1014,464)"/>
<path d="M0 0 C0.33 0.66 0.66 1.32 1 2 C-0.4375 4.625 -0.4375 4.625 -2 7 C-4.35171131 6.40138258 -6.6859378 5.73075648 -9 5 C-9.33 4.34 -9.66 3.68 -10 3 C-7.69 3.33 -5.38 3.66 -3 4 C-2.01 2.68 -1.02 1.36 0 0 Z " fill="#1956EA" transform="translate(856,485)"/>
<path d="M0 0 C0.66 0 1.32 0 2 0 C1.67 0.99 1.34 1.98 1 3 C0.67 2.01 0.34 1.02 0 0 Z " fill="#2162F7" transform="translate(972,539)"/>
<path d="M0 0 C0.99 0.33 1.98 0.66 3 1 C2.01 1 1.02 1 0 1 C0 0.67 0 0.34 0 0 Z " fill="#2262F7" transform="translate(1043,486)"/>
<path d="M0 0 C3 1 3 1 3 1 Z " fill="#235CE8" transform="translate(1085,548)"/>
<path d="" fill="#2263FB" transform="translate(0,0)"/>
<path d="M0 0 C0.66 0 1.32 0 2 0 C1.67 0.66 1.34 1.32 1 2 C0.67 1.34 0.34 0.68 0 0 Z " fill="#2264FD" transform="translate(971,494)"/>
<path d="M0 0 C3 1 3 1 3 1 Z " fill="#2360F6" transform="translate(1056,485)"/>
<path d="M0 0 C2 1 2 1 2 1 Z " fill="#2563F4" transform="translate(948,557)"/>
<path d="M0 0 C2 1 2 1 2 1 Z " fill="#235CE9" transform="translate(1091,548)"/>
<path d="M0 0 C2 1 2 1 2 1 Z " fill="#245CE6" transform="translate(661,548)"/>
<path d="M0 0 C2 1 2 1 2 1 Z " fill="#2657DE" transform="translate(586,546)"/>
<path d="M0 0 C2 1 2 1 2 1 Z " fill="#1E5EEF" transform="translate(720,543)"/>
<path d="" fill="#215CE9" transform="translate(0,0)"/>
<path d="" fill="#2364F7" transform="translate(0,0)"/>
<path d="M0 0 C2 1 2 1 2 1 Z " fill="#2064FD" transform="translate(963,522)"/>
<path d="M0 0 C2 1 2 1 2 1 Z " fill="#2063FC" transform="translate(868,511)"/>
<path d="M0 0 C2 1 2 1 2 1 Z " fill="#1E63FA" transform="translate(1109,510)"/>
<path d="M0 0 C2 1 2 1 2 1 Z " fill="#2160F7" transform="translate(388,503)"/>
<path d="" fill="#2263F8" transform="translate(0,0)"/>
<path d="" fill="#2264FA" transform="translate(0,0)"/>
<path d="" fill="#2061FB" transform="translate(0,0)"/>
<path d="" fill="#1F63FA" transform="translate(0,0)"/>
<path d="M0 0 C2 1 2 1 2 1 Z " fill="#1F61F4" transform="translate(1064,487)"/>
<path d="" fill="#2264F9" transform="translate(0,0)"/>
<path d="M0 0 C2 1 2 1 2 1 Z " fill="#1F62FC" transform="translate(962,483)"/>
<path d="M0 0 C2 1 2 1 2 1 Z " fill="#2363F9" transform="translate(862,483)"/>
<path d="" fill="#2263F8" transform="translate(0,0)"/>
<path d="" fill="#2363F8" transform="translate(0,0)"/>
<path d="M0 0 C2 1 2 1 2 1 Z " fill="#245CE8" transform="translate(1195,460)"/>
<path d="" fill="#2263F6" transform="translate(0,0)"/>
<path d="" fill="#2261EF" transform="translate(0,0)"/>
<path d="M0 0 C2 1 2 1 2 1 Z " fill="#2458DA" transform="translate(821,428)"/>
<path d="" fill="#5E5E5F" transform="translate(0,0)"/>
<path d="" fill="#5D5F5D" transform="translate(0,0)"/>
<path d="" fill="#605E62" transform="translate(0,0)"/>
<path d="" fill="#606060" transform="translate(0,0)"/>
<path d="" fill="#5F5E5D" transform="translate(0,0)"/>
<path d="" fill="#5C5E5F" transform="translate(0,0)"/>
<path d="" fill="#5F615F" transform="translate(0,0)"/>
<path d="" fill="#5C5E5D" transform="translate(0,0)"/>
<path d="" fill="#5E5E5C" transform="translate(0,0)"/>
<path d="" fill="#5F5E60" transform="translate(0,0)"/>
<path d="" fill="#5F5F5F" transform="translate(0,0)"/>
<path d="" fill="#605F60" transform="translate(0,0)"/>
<path d="" fill="#5E5F5E" transform="translate(0,0)"/>
<path d="" fill="#5D5D5C" transform="translate(0,0)"/>
<path d="" fill="#5D5D5D" transform="translate(0,0)"/>
<path d="" fill="#616161" transform="translate(0,0)"/>
<path d="" fill="#5E605D" transform="translate(0,0)"/>
<path d="" fill="#646566" transform="translate(0,0)"/>
<path d="" fill="#5B5C5D" transform="translate(0,0)"/>
<path d="" fill="#5E5E5E" transform="translate(0,0)"/>
<path d="" fill="#5A5B5C" transform="translate(0,0)"/>
<path d="" fill="#646264" transform="translate(0,0)"/>
<path d="" fill="#5A5C5B" transform="translate(0,0)"/>
<path d="" fill="#5D5D5C" transform="translate(0,0)"/>
<path d="" fill="#5C5D5B" transform="translate(0,0)"/>
<path d="" fill="#616264" transform="translate(0,0)"/>
<path d="" fill="#585A5A" transform="translate(0,0)"/>
<path d="" fill="#5A5959" transform="translate(0,0)"/>
<path d="" fill="#5C5A5C" transform="translate(0,0)"/>
<path d="" fill="#585B5B" transform="translate(0,0)"/>
<path d="" fill="#616262" transform="translate(0,0)"/>
<path d="" fill="#565859" transform="translate(0,0)"/>
<path d="" fill="#585758" transform="translate(0,0)"/>
<path d="" fill="#5A585B" transform="translate(0,0)"/>
<path d="" fill="#595A5B" transform="translate(0,0)"/>
<path d="" fill="#5A5959" transform="translate(0,0)"/>
<path d="" fill="#575859" transform="translate(0,0)"/>
<path d="" fill="#555756" transform="translate(0,0)"/>
<path d="" fill="#585757" transform="translate(0,0)"/>
<path d="" fill="#555556" transform="translate(0,0)"/>
<path d="" fill="#5D5E5F" transform="translate(0,0)"/>
<path d="" fill="#565657" transform="translate(0,0)"/>
<path d="" fill="#525353" transform="translate(0,0)"/>
<path d="" fill="#545555" transform="translate(0,0)"/>
<path d="" fill="#555756" transform="translate(0,0)"/>
<path d="" fill="#545454" transform="translate(0,0)"/>
<path d="" fill="#555455" transform="translate(0,0)"/>
<path d="" fill="#535352" transform="translate(0,0)"/>
<path d="" fill="#5B5C5D" transform="translate(0,0)"/>
<path d="" fill="#505252" transform="translate(0,0)"/>
<path d="" fill="#525353" transform="translate(0,0)"/>
<path d="" fill="#545355" transform="translate(0,0)"/>
<path d="" fill="#535254" transform="translate(0,0)"/>
<path d="" fill="#555555" transform="translate(0,0)"/>
<path d="" fill="#575759" transform="translate(0,0)"/>
<path d="" fill="#515351" transform="translate(0,0)"/>
<path d="" fill="#595B5C" transform="translate(0,0)"/>
<path d="" fill="#4C4F4F" transform="translate(0,0)"/>
<path d="" fill="#505050" transform="translate(0,0)"/>
<path d="" fill="#4F5150" transform="translate(0,0)"/>
<path d="" fill="#4B4D4D" transform="translate(0,0)"/>
<path d="" fill="#4E4D4F" transform="translate(0,0)"/>
<path d="" fill="#4E504E" transform="translate(0,0)"/>
<path d="" fill="#484B4B" transform="translate(0,0)"/>
<path d="" fill="#4B4A4C" transform="translate(0,0)"/>
<path d="" fill="#4C4D4E" transform="translate(0,0)"/>
<path d="" fill="#4D4D4B" transform="translate(0,0)"/>
<path d="" fill="#494A47" transform="translate(0,0)"/>
<path d="" fill="#4E4E4E" transform="translate(0,0)"/>
<path d="" fill="#535255" transform="translate(0,0)"/>
<path d="" fill="#565656" transform="translate(0,0)"/>
<path d="" fill="#474948" transform="translate(0,0)"/>
<path d="" fill="#474647" transform="translate(0,0)"/>
<path d="" fill="#484849" transform="translate(0,0)"/>
<path d="" fill="#49494B" transform="translate(0,0)"/>
<path d="" fill="#4A4A4A" transform="translate(0,0)"/>
<path d="" fill="#474845" transform="translate(0,0)"/>
<path d="" fill="#454646" transform="translate(0,0)"/>
<path d="" fill="#464547" transform="translate(0,0)"/>
<path d="" fill="#494648" transform="translate(0,0)"/>
<path d="" fill="#414442" transform="translate(0,0)"/>
<path d="" fill="#3F4041" transform="translate(0,0)"/>
<path d="" fill="#434343" transform="translate(0,0)"/>
<path d="" fill="#3E3C3E" transform="translate(0,0)"/>
<path d="" fill="#3B3A3C" transform="translate(0,0)"/>
<path d="" fill="#424244" transform="translate(0,0)"/>
<path d="" fill="#4E4E50" transform="translate(0,0)"/>
<path d="" fill="#3D3F3D" transform="translate(0,0)"/>
<path d="" fill="#3A3A3A" transform="translate(0,0)"/>
<path d="" fill="#3A3A3B" transform="translate(0,0)"/>
<path d="" fill="#494749" transform="translate(0,0)"/>
<path d="" fill="#403F41" transform="translate(0,0)"/>
<path d="" fill="#353737" transform="translate(0,0)"/>
<path d="" fill="#373838" transform="translate(0,0)"/>
<path d="" fill="#333534" transform="translate(0,0)"/>
<path d="" fill="#353536" transform="translate(0,0)"/>
<path d="" fill="#303132" transform="translate(0,0)"/>
<path d="" fill="#424244" transform="translate(0,0)"/>
<path d="" fill="#2D2F2E" transform="translate(0,0)"/>
<path d="" fill="#313032" transform="translate(0,0)"/>
<path d="" fill="#2C2C2D" transform="translate(0,0)"/>
<path d="" fill="#444545" transform="translate(0,0)"/>
<path d="" fill="#262928" transform="translate(0,0)"/>
<path d="" fill="#303231" transform="translate(0,0)"/>
<path d="" fill="#434444" transform="translate(0,0)"/>
<path d="" fill="#242525" transform="translate(0,0)"/>
<path d="" fill="#292929" transform="translate(0,0)"/>
<path d="" fill="#202323" transform="translate(0,0)"/>
<path d="" fill="#232326" transform="translate(0,0)"/>
<path d="" fill="#1E1F21" transform="translate(0,0)"/>
<path d="" fill="#191D1F" transform="translate(0,0)"/>
<path d="" fill="#292629" transform="translate(0,0)"/>
<path d="" fill="#27282A" transform="translate(0,0)"/>
<path d="" fill="#3D3D3F" transform="translate(0,0)"/>
<path d="" fill="#3B3D3E" transform="translate(0,0)"/>
<path d="" fill="#161418" transform="translate(0,0)"/>
<path d="" fill="#242526" transform="translate(0,0)"/>
<path d="" fill="#18181D" transform="translate(0,0)"/>
<path d="" fill="#12161B" transform="translate(0,0)"/>
<path d="" fill="#39393A" transform="translate(0,0)"/>
<path d="" fill="#10151A" transform="translate(0,0)"/>
<path d="" fill="#151A1F" transform="translate(0,0)"/>
<path d="" fill="#13151E" transform="translate(0,0)"/>
<path d="" fill="#161720" transform="translate(0,0)"/>
<path d="" fill="#12151F" transform="translate(0,0)"/>
<path d="" fill="#343638" transform="translate(0,0)"/>
<path d="" fill="#0D141F" transform="translate(0,0)"/>
<path d="" fill="#101421" transform="translate(0,0)"/>
<path d="" fill="#0E1522" transform="translate(0,0)"/>
<path d="" fill="#323538" transform="translate(0,0)"/>
<path d="" fill="#333337" transform="translate(0,0)"/>
<path d="" fill="#0E1827" transform="translate(0,0)"/>
<path d="" fill="#313337" transform="translate(0,0)"/>
<path d="" fill="#0D192C" transform="translate(0,0)"/>
<path d="" fill="#2F3236" transform="translate(0,0)"/>
<path d="" fill="#0F1A30" transform="translate(0,0)"/>
<path d="" fill="#101C35" transform="translate(0,0)"/>
<path d="" fill="#111E37" transform="translate(0,0)"/>
<path d="" fill="#121F3B" transform="translate(0,0)"/>
<path d="" fill="#131C38" transform="translate(0,0)"/>
<path d="" fill="#122142" transform="translate(0,0)"/>
<path d="" fill="#142448" transform="translate(0,0)"/>
<path d="" fill="#15274F" transform="translate(0,0)"/>
<path d="" fill="#16234A" transform="translate(0,0)"/>
<path d="" fill="#2C3037" transform="translate(0,0)"/>
<path d="" fill="#1D3878" transform="translate(0,0)"/>
<path d="" fill="#2B303B" transform="translate(0,0)"/>
<path d="" fill="#255DE9" transform="translate(0,0)"/>
<path d="" fill="#255BE6" transform="translate(0,0)"/>
<path d="" fill="#255FEB" transform="translate(0,0)"/>
<path d="" fill="#2159DB" transform="translate(0,0)"/>
<path d="" fill="#2557DC" transform="translate(0,0)"/>
<path d="" fill="#2458E0" transform="translate(0,0)"/>
<path d="" fill="#205BE3" transform="translate(0,0)"/>
<path d="" fill="#1F61F5" transform="translate(0,0)"/>
<path d="" fill="#255FEE" transform="translate(0,0)"/>
<path d="" fill="#205ADF" transform="translate(0,0)"/>
<path d="" fill="#292F42" transform="translate(0,0)"/>
<path d="" fill="#245ADC" transform="translate(0,0)"/>
<path d="" fill="#2459DA" transform="translate(0,0)"/>
<path d="" fill="#2460F2" transform="translate(0,0)"/>
<path d="" fill="#2661F0" transform="translate(0,0)"/>
<path d="" fill="#215CE9" transform="translate(0,0)"/>
<path d="" fill="#215EF0" transform="translate(0,0)"/>
<path d="" fill="#2160F3" transform="translate(0,0)"/>
<path d="" fill="#2365F9" transform="translate(0,0)"/>
<path d="" fill="#2465FB" transform="translate(0,0)"/>
<path d="" fill="#2461F3" transform="translate(0,0)"/>
<path d="" fill="#2262F0" transform="translate(0,0)"/>
<path d="" fill="#2464F8" transform="translate(0,0)"/>
<path d="" fill="#2561F3" transform="translate(0,0)"/>
<path d="" fill="#225CE9" transform="translate(0,0)"/>
<path d="" fill="#255BE9" transform="translate(0,0)"/>
<path d="" fill="#225DE6" transform="translate(0,0)"/>
<path d="" fill="#255DEB" transform="translate(0,0)"/>
<path d="" fill="#235AE7" transform="translate(0,0)"/>
<path d="" fill="#245AE7" transform="translate(0,0)"/>
<path d="" fill="#245BE5" transform="translate(0,0)"/>
<path d="" fill="#245AE7" transform="translate(0,0)"/>
<path d="" fill="#255BE0" transform="translate(0,0)"/>
<path d="" fill="#235EEA" transform="translate(0,0)"/>
<path d="" fill="#265DE9" transform="translate(0,0)"/>
<path d="" fill="#2663F7" transform="translate(0,0)"/>
<path d="" fill="#265CE3" transform="translate(0,0)"/>
<path d="" fill="#255DE6" transform="translate(0,0)"/>
<path d="" fill="#245CEB" transform="translate(0,0)"/>
<path d="" fill="#285CE0" transform="translate(0,0)"/>
<path d="" fill="#2460F1" transform="translate(0,0)"/>
<path d="" fill="#265FEB" transform="translate(0,0)"/>
<path d="" fill="#225EEB" transform="translate(0,0)"/>
<path d="" fill="#2561F2" transform="translate(0,0)"/>
<path d="" fill="#225CE7" transform="translate(0,0)"/>
<path d="" fill="#2063F5" transform="translate(0,0)"/>
<path d="" fill="#2664FB" transform="translate(0,0)"/>
<path d="" fill="#245DEC" transform="translate(0,0)"/>
<path d="" fill="#2160F8" transform="translate(0,0)"/>
<path d="" fill="#235DEE" transform="translate(0,0)"/>
<path d="" fill="#215FEE" transform="translate(0,0)"/>
<path d="" fill="#2264F9" transform="translate(0,0)"/>
<path d="" fill="#2461F2" transform="translate(0,0)"/>
<path d="" fill="#205DF1" transform="translate(0,0)"/>
<path d="" fill="#2462F7" transform="translate(0,0)"/>
<path d="" fill="#2A3349" transform="translate(0,0)"/>
<path d="" fill="#2560ED" transform="translate(0,0)"/>
<path d="" fill="#2361F1" transform="translate(0,0)"/>
<path d="" fill="#2464FA" transform="translate(0,0)"/>
<path d="" fill="#2260F5" transform="translate(0,0)"/>
<path d="" fill="#2260F5" transform="translate(0,0)"/>
<path d="" fill="#2362F5" transform="translate(0,0)"/>
<path d="" fill="#225DF7" transform="translate(0,0)"/>
<path d="" fill="#245FF1" transform="translate(0,0)"/>
<path d="" fill="#225EF4" transform="translate(0,0)"/>
<path d="" fill="#2260F3" transform="translate(0,0)"/>
<path d="" fill="#2161F5" transform="translate(0,0)"/>
<path d="" fill="#215FF1" transform="translate(0,0)"/>
<path d="" fill="#2361F7" transform="translate(0,0)"/>
<path d="" fill="#2462F6" transform="translate(0,0)"/>
<path d="" fill="#1F61FE" transform="translate(0,0)"/>
<path d="" fill="#2263F2" transform="translate(0,0)"/>
<path d="" fill="#2264FA" transform="translate(0,0)"/>
<path d="" fill="#2364FF" transform="translate(0,0)"/>
<path d="" fill="#1F63FC" transform="translate(0,0)"/>
<path d="" fill="#2064FB" transform="translate(0,0)"/>
<path d="" fill="#2063FA" transform="translate(0,0)"/>
<path d="" fill="#2263FB" transform="translate(0,0)"/>
<path d="" fill="#2362FF" transform="translate(0,0)"/>
<path d="" fill="#2066FE" transform="translate(0,0)"/>
<path d="" fill="#1D5FFA" transform="translate(0,0)"/>
<path d="" fill="#2363F9" transform="translate(0,0)"/>
<path d="" fill="#2165FE" transform="translate(0,0)"/>
<path d="" fill="#2362F6" transform="translate(0,0)"/>
<path d="" fill="#2264FC" transform="translate(0,0)"/>
<path d="" fill="#265BE0" transform="translate(0,0)"/>
<path d="" fill="#2260FB" transform="translate(0,0)"/>
<path d="" fill="#2664FF" transform="translate(0,0)"/>
<path d="" fill="#2265FA" transform="translate(0,0)"/>
<path d="" fill="#2162F9" transform="translate(0,0)"/>
<path d="" fill="#2162F9" transform="translate(0,0)"/>
<path d="" fill="#2265F6" transform="translate(0,0)"/>
<path d="" fill="#255BE1" transform="translate(0,0)"/>
<path d="" fill="#2362FA" transform="translate(0,0)"/>
<path d="" fill="#2265FB" transform="translate(0,0)"/>
<path d="" fill="#1F5FF6" transform="translate(0,0)"/>
<path d="" fill="#2063F9" transform="translate(0,0)"/>
<path d="" fill="#1F60F9" transform="translate(0,0)"/>
<path d="" fill="#1F61FB" transform="translate(0,0)"/>
<path d="" fill="#2263F9" transform="translate(0,0)"/>
<path d="" fill="#2564F9" transform="translate(0,0)"/>
<path d="" fill="#1E61FB" transform="translate(0,0)"/>
<path d="" fill="#2463FA" transform="translate(0,0)"/>
<path d="" fill="#2264FA" transform="translate(0,0)"/>
<path d="" fill="#2162FB" transform="translate(0,0)"/>
<path d="" fill="#2362F7" transform="translate(0,0)"/>
<path d="" fill="#2161F9" transform="translate(0,0)"/>
<path d="" fill="#2163FC" transform="translate(0,0)"/>
<path d="" fill="#2163FF" transform="translate(0,0)"/>
<path d="" fill="#1F5FF6" transform="translate(0,0)"/>
<path d="" fill="#1F5EF8" transform="translate(0,0)"/>
<path d="" fill="#2062FE" transform="translate(0,0)"/>
<path d="" fill="#2061F7" transform="translate(0,0)"/>
<path d="" fill="#2163FD" transform="translate(0,0)"/>
<path d="" fill="#2161FB" transform="translate(0,0)"/>
<path d="" fill="#2463FD" transform="translate(0,0)"/>
<path d="" fill="#2562FB" transform="translate(0,0)"/>
<path d="" fill="#2264FD" transform="translate(0,0)"/>
<path d="" fill="#1F61F7" transform="translate(0,0)"/>
<path d="" fill="#2362FB" transform="translate(0,0)"/>
<path d="" fill="#2162F8" transform="translate(0,0)"/>
<path d="" fill="#1E63F9" transform="translate(0,0)"/>
<path d="" fill="#2061F9" transform="translate(0,0)"/>
<path d="" fill="#1E62F9" transform="translate(0,0)"/>
<path d="" fill="#1F64F9" transform="translate(0,0)"/>
<path d="" fill="#1E60F6" transform="translate(0,0)"/>
<path d="" fill="#235FF7" transform="translate(0,0)"/>
<path d="" fill="#2160F6" transform="translate(0,0)"/>
<path d="" fill="#1E64FC" transform="translate(0,0)"/>
<path d="" fill="#2164FB" transform="translate(0,0)"/>
<path d="" fill="#1F62FA" transform="translate(0,0)"/>
<path d="" fill="#2261F9" transform="translate(0,0)"/>
<path d="" fill="#1E61FB" transform="translate(0,0)"/>
<path d="" fill="#2062FD" transform="translate(0,0)"/>
<path d="" fill="#2265FC" transform="translate(0,0)"/>
<path d="" fill="#2163FA" transform="translate(0,0)"/>
<path d="" fill="#2261F6" transform="translate(0,0)"/>
<path d="" fill="#2364FC" transform="translate(0,0)"/>
<path d="" fill="#2261FA" transform="translate(0,0)"/>
<path d="" fill="#2163F8" transform="translate(0,0)"/>
<path d="" fill="#2264FB" transform="translate(0,0)"/>
<path d="" fill="#2160F4" transform="translate(0,0)"/>
<path d="" fill="#1F60F7" transform="translate(0,0)"/>
<path d="" fill="#2365FB" transform="translate(0,0)"/>
<path d="" fill="#2363F9" transform="translate(0,0)"/>
<path d="" fill="#2264FA" transform="translate(0,0)"/>
<path d="" fill="#2060F3" transform="translate(0,0)"/>
<path d="" fill="#2365F9" transform="translate(0,0)"/>
<path d="" fill="#2164F9" transform="translate(0,0)"/>
<path d="" fill="#2262F8" transform="translate(0,0)"/>
<path d="" fill="#2063F7" transform="translate(0,0)"/>
<path d="" fill="#2061F7" transform="translate(0,0)"/>
<path d="" fill="#2360F9" transform="translate(0,0)"/>
<path d="" fill="#2164FA" transform="translate(0,0)"/>
<path d="" fill="#2364F8" transform="translate(0,0)"/>
<path d="" fill="#2363F5" transform="translate(0,0)"/>
<path d="" fill="#275ADB" transform="translate(0,0)"/>
<path d="" fill="#2362F4" transform="translate(0,0)"/>
<path d="" fill="#2160F9" transform="translate(0,0)"/>
<path d="" fill="#2264FA" transform="translate(0,0)"/>
<path d="" fill="#2162F7" transform="translate(0,0)"/>
<path d="" fill="#205DF3" transform="translate(0,0)"/>
<path d="" fill="#2461F4" transform="translate(0,0)"/>
<path d="" fill="#2260F1" transform="translate(0,0)"/>
<path d="" fill="#205DEE" transform="translate(0,0)"/>
<path d="" fill="#215DEC" transform="translate(0,0)"/>
<path d="" fill="#2061F9" transform="translate(0,0)"/>
<path d="" fill="#2160F2" transform="translate(0,0)"/>
<path d="" fill="#1C5FF8" transform="translate(0,0)"/>
<path d="" fill="#1E5BF0" transform="translate(0,0)"/>
<path d="" fill="#2361F8" transform="translate(0,0)"/>
<path d="" fill="#225BEF" transform="translate(0,0)"/>
<path d="" fill="#215BE9" transform="translate(0,0)"/>
<path d="" fill="#1E5BE6" transform="translate(0,0)"/>
<path d="" fill="#1F5CEC" transform="translate(0,0)"/>
<path d="" fill="#215FEA" transform="translate(0,0)"/>
<path d="" fill="#2060F6" transform="translate(0,0)"/>
<path d="" fill="#215FF3" transform="translate(0,0)"/>
<path d="" fill="#2360EB" transform="translate(0,0)"/>
<path d="" fill="#2363F7" transform="translate(0,0)"/>
<path d="" fill="#255BE4" transform="translate(0,0)"/>
<path d="" fill="#215CEA" transform="translate(0,0)"/>
<path d="" fill="#2063FB" transform="translate(0,0)"/>
<path d="" fill="#2463FA" transform="translate(0,0)"/>
<path d="" fill="#2262F4" transform="translate(0,0)"/>
<path d="" fill="#2262F3" transform="translate(0,0)"/>
<path d="" fill="#255FEC" transform="translate(0,0)"/>
<path d="" fill="#215CE4" transform="translate(0,0)"/>
<path d="" fill="#245FE9" transform="translate(0,0)"/>
<path d="" fill="#2458DA" transform="translate(0,0)"/>
<path d="" fill="#2157D9" transform="translate(0,0)"/>
<path d="" fill="#255BE9" transform="translate(0,0)"/>
<path d="" fill="#2265FD" transform="translate(0,0)"/>
<path d="" fill="#2164F9" transform="translate(0,0)"/>
<path d="" fill="#2062FB" transform="translate(0,0)"/>
<path d="" fill="#2165FB" transform="translate(0,0)"/>
<path d="" fill="#2363FB" transform="translate(0,0)"/>
<path d="" fill="#274FB1" transform="translate(0,0)"/>
<path d="" fill="#235CEA" transform="translate(0,0)"/>
<path d="" fill="#245FEC" transform="translate(0,0)"/>
<path d="" fill="#2360EC" transform="translate(0,0)"/>
<path d="" fill="#225DEA" transform="translate(0,0)"/>
<path d="" fill="#1D356A" transform="translate(0,0)"/>
<path d="" fill="#254497" transform="translate(0,0)"/>
<path d="" fill="#23418B" transform="translate(0,0)"/>
<path d="" fill="#243D81" transform="translate(0,0)"/>
<path d="" fill="#1D2C55" transform="translate(0,0)"/>
<path d="" fill="#2D313B" transform="translate(0,0)"/>
<path d="" fill="#2D313A" transform="translate(0,0)"/>
<path d="" fill="#1A284B" transform="translate(0,0)"/>
<path d="" fill="#22366C" transform="translate(0,0)"/>
<path d="" fill="#213363" transform="translate(0,0)"/>
<path d="" fill="#303239" transform="translate(0,0)"/>
<path d="" fill="#202B4D" transform="translate(0,0)"/>
<path d="" fill="#242835" transform="translate(0,0)"/>
<path d="" fill="#323439" transform="translate(0,0)"/>
<path d="" fill="#192232" transform="translate(0,0)"/>
<path d="" fill="#1B202C" transform="translate(0,0)"/>
<path d="" fill="#1E263D" transform="translate(0,0)"/>
<path d="" fill="#1E222C" transform="translate(0,0)"/>
<path d="" fill="#1B212A" transform="translate(0,0)"/>
<path d="" fill="#21252A" transform="translate(0,0)"/>
<path d="" fill="#1B2029" transform="translate(0,0)"/>
<path d="" fill="#202535" transform="translate(0,0)"/>
<path d="" fill="#212228" transform="translate(0,0)"/>
<path d="" fill="#37383A" transform="translate(0,0)"/>
<path d="" fill="#1D2028" transform="translate(0,0)"/>
<path d="" fill="#37373B" transform="translate(0,0)"/>
<path d="" fill="#1E2127" transform="translate(0,0)"/>
<path d="" fill="#38393B" transform="translate(0,0)"/>
<path d="" fill="#1F2227" transform="translate(0,0)"/>
<path d="" fill="#3A3B3C" transform="translate(0,0)"/>
<path d="" fill="#202326" transform="translate(0,0)"/>
<path d="" fill="#26252A" transform="translate(0,0)"/>
<path d="" fill="#212526" transform="translate(0,0)"/>
<path d="" fill="#272829" transform="translate(0,0)"/>
<path d="" fill="#252528" transform="translate(0,0)"/>
<path d="" fill="#3C3C3F" transform="translate(0,0)"/>
<path d="" fill="#28282A" transform="translate(0,0)"/>
<path d="" fill="#252829" transform="translate(0,0)"/>
<path d="" fill="#26272A" transform="translate(0,0)"/>
<path d="" fill="#272929" transform="translate(0,0)"/>
<path d="" fill="#27282A" transform="translate(0,0)"/>
<path d="" fill="#2C2D2E" transform="translate(0,0)"/>
<path d="" fill="#292A2C" transform="translate(0,0)"/>
<path d="" fill="#343434" transform="translate(0,0)"/>
<path d="" fill="#2B2E2D" transform="translate(0,0)"/>
<path d="" fill="#2D2F2F" transform="translate(0,0)"/>
<path d="" fill="#2D2C2E" transform="translate(0,0)"/>
<path d="" fill="#2E3130" transform="translate(0,0)"/>
<path d="" fill="#313332" transform="translate(0,0)"/>
<path d="" fill="#313032" transform="translate(0,0)"/>
<path d="" fill="#353334" transform="translate(0,0)"/>
<path d="" fill="#49494B" transform="translate(0,0)"/>
<path d="" fill="#333435" transform="translate(0,0)"/>
<path d="" fill="#333333" transform="translate(0,0)"/>
<path d="" fill="#3B3B3B" transform="translate(0,0)"/>
<path d="" fill="#363535" transform="translate(0,0)"/>
<path d="" fill="#3B393B" transform="translate(0,0)"/>
<path d="" fill="#4C4C4D" transform="translate(0,0)"/>
<path d="" fill="#383939" transform="translate(0,0)"/>
<path d="" fill="#383738" transform="translate(0,0)"/>
<path d="" fill="#3E3F3E" transform="translate(0,0)"/>
<path d="" fill="#3B3A3A" transform="translate(0,0)"/>
<path d="" fill="#393C3B" transform="translate(0,0)"/>
<path d="" fill="#514F50" transform="translate(0,0)"/>
<path d="" fill="#3B3E3D" transform="translate(0,0)"/>
<path d="" fill="#3D3A3D" transform="translate(0,0)"/>
<path d="" fill="#444543" transform="translate(0,0)"/>
<path d="" fill="#454446" transform="translate(0,0)"/>
<path d="" fill="#434543" transform="translate(0,0)"/>
<path d="" fill="#424443" transform="translate(0,0)"/>
<path d="" fill="#444745" transform="translate(0,0)"/>
<path d="" fill="#454645" transform="translate(0,0)"/>
<path d="" fill="#454447" transform="translate(0,0)"/>
<path d="" fill="#484648" transform="translate(0,0)"/>
<path d="" fill="#464647" transform="translate(0,0)"/>
<path d="" fill="#454747" transform="translate(0,0)"/>
<path d="" fill="#464648" transform="translate(0,0)"/>
<path d="" fill="#4B4A4B" transform="translate(0,0)"/>
<path d="" fill="#47494A" transform="translate(0,0)"/>
<path d="" fill="#49484A" transform="translate(0,0)"/>
<path d="" fill="#4D4D4C" transform="translate(0,0)"/>
<path d="" fill="#4A4C4B" transform="translate(0,0)"/>
<path d="" fill="#4A4A4A" transform="translate(0,0)"/>
<path d="" fill="#545353" transform="translate(0,0)"/>
<path d="" fill="#494B4B" transform="translate(0,0)"/>
<path d="" fill="#4B4A4B" transform="translate(0,0)"/>
<path d="" fill="#4F4F4D" transform="translate(0,0)"/>
<path d="" fill="#4C4C4B" transform="translate(0,0)"/>
<path d="" fill="#4F514F" transform="translate(0,0)"/>
<path d="" fill="#5C5C5D" transform="translate(0,0)"/>
<path d="" fill="#4C4E4C" transform="translate(0,0)"/>
<path d="" fill="#4D4C4E" transform="translate(0,0)"/>
<path d="" fill="#5C5D5D" transform="translate(0,0)"/>
<path d="" fill="#515151" transform="translate(0,0)"/>
<path d="" fill="#565756" transform="translate(0,0)"/>
<path d="" fill="#4D4E4E" transform="translate(0,0)"/>
<path d="" fill="#4F4E50" transform="translate(0,0)"/>
<path d="" fill="#525252" transform="translate(0,0)"/>
<path d="" fill="#585858" transform="translate(0,0)"/>
<path d="" fill="#4F5151" transform="translate(0,0)"/>
<path d="" fill="#525253" transform="translate(0,0)"/>
<path d="" fill="#555355" transform="translate(0,0)"/>
<path d="" fill="#535250" transform="translate(0,0)"/>
<path d="" fill="#515351" transform="translate(0,0)"/>
<path d="" fill="#585658" transform="translate(0,0)"/>
<path d="" fill="#505353" transform="translate(0,0)"/>
<path d="" fill="#535253" transform="translate(0,0)"/>
<path d="" fill="#575556" transform="translate(0,0)"/>
<path d="" fill="#575857" transform="translate(0,0)"/>
<path d="" fill="#636363" transform="translate(0,0)"/>
<path d="" fill="#525452" transform="translate(0,0)"/>
<path d="" fill="#555556" transform="translate(0,0)"/>
<path d="" fill="#585759" transform="translate(0,0)"/>
<path d="" fill="#595A5A" transform="translate(0,0)"/>
<path d="" fill="#585A58" transform="translate(0,0)"/>
<path d="" fill="#545555" transform="translate(0,0)"/>
<path d="" fill="#575758" transform="translate(0,0)"/>
<path d="" fill="#565758" transform="translate(0,0)"/>
<path d="" fill="#575858" transform="translate(0,0)"/>
<path d="" fill="#5A5B59" transform="translate(0,0)"/>
<path d="" fill="#656565" transform="translate(0,0)"/>
<path d="" fill="#555756" transform="translate(0,0)"/>
<path d="" fill="#58585B" transform="translate(0,0)"/>
<path d="" fill="#5B595B" transform="translate(0,0)"/>
<path d="" fill="#565958" transform="translate(0,0)"/>
<path d="" fill="#59595A" transform="translate(0,0)"/>
<path d="" fill="#656568" transform="translate(0,0)"/>
<path d="" fill="#595A5A" transform="translate(0,0)"/>
<path d="" fill="#5A5959" transform="translate(0,0)"/>
</svg>
